<svg width="25" height="25" viewBox="0 0 25 25" fill="none" xmlns="http://www.w3.org/2000/svg">
<g clip-path="url(#clip0_131_1087)">
<path d="M10.875 0L8.38818e-10 18.8365V24.25C-9.34073e-06 24.4477 0.0780066 24.6373 0.217086 24.7778C0.356165 24.9182 0.545062 24.9981 0.742708 25H11.1833L5.9375 15.9135L15.125 0H10.875ZM16.25 0L11.1875 8.76875L15.0604 15.476H25V0.747917C24.9994 0.549365 24.9202 0.359135 24.7796 0.218933C24.639 0.0787308 24.4486 -7.66014e-07 24.25 0L16.25 0ZM10.625 9.74271L8.475 13.4667C8.35735 13.6707 8.29541 13.902 8.29541 14.1375C8.29541 14.373 8.35735 14.6043 8.475 14.8083C8.71458 15.225 9.15833 15.475 9.63854 15.475H13.9354L10.625 9.74271ZM7.37292 16.451L12.3083 25H24.2573C24.4546 24.9981 24.6432 24.9185 24.7822 24.7785C24.9212 24.6385 24.9995 24.4494 25 24.2521V16.45L7.37292 16.451Z" fill="#1D1A19"/>
</g>
<defs>
<clipPath id="clip0_131_1087">
<rect width="25" height="25" fill="white"/>
</clipPath>
</defs>
</svg>
