<svg width="25" height="25" viewBox="0 0 25 25" fill="none" xmlns="http://www.w3.org/2000/svg">
<g clip-path="url(#clip0_131_1150)">
<path d="M0.824567 0.833334V0C0.593976 0 0.373919 0.0975831 0.217785 0.269075C0.0616493 0.440569 -0.0162986 0.670301 0.00285089 0.902539L0.824567 0.833334ZM23.9124 0.833334L24.7341 0.902539C24.7532 0.670301 24.6752 0.440569 24.5191 0.269075C24.3631 0.0975831 24.1429 0 23.9124 0V0.833334ZM22.2632 20.8334L22.524 21.6239C22.837 21.5185 23.0576 21.2347 23.085 20.9025L22.2632 20.8334ZM12.3685 24.1667L12.1077 24.9572C12.277 25.0144 12.46 25.0144 12.6292 24.9572L12.3685 24.1667ZM2.47369 20.8334L1.65198 20.9025C1.67938 21.2347 1.90003 21.5185 2.21295 21.6239L2.47369 20.8334ZM17.3158 5.83334H18.1404V5.00001H17.3158V5.83334ZM17.3158 15.8334L17.5766 16.6239L18.1404 16.434V15.8334H17.3158ZM12.3685 17.5L12.1077 18.2905L12.3685 18.3784L12.6292 18.2905L12.3685 17.5ZM7.42108 15.8334H6.59651V16.434L7.16033 16.6239L7.42108 15.8334ZM0.824567 1.66667H23.9124V0H0.824567V1.66667ZM23.0906 0.764129L21.4415 20.7642L23.085 20.9025L24.7341 0.902539L23.0906 0.764129ZM22.0025 20.0429L12.1077 23.3762L12.6292 24.9572L22.524 21.6239L22.0025 20.0429ZM12.6292 23.3762L2.73444 20.0429L2.21295 21.6239L12.1077 24.9572L12.6292 23.3762ZM3.29541 20.7642L1.64628 0.764129L0.00285089 0.902539L1.65198 20.9025L3.29541 20.7642ZM17.3158 5.00001H6.59651V6.66667H17.3158V5.00001ZM9.89477 11.6667H17.3158V10H9.89477V11.6667ZM16.4913 10.8333V15.8334H18.1404V10.8333H16.4913ZM17.0551 15.0428L12.1077 16.7095L12.6292 18.2905L17.5766 16.6239L17.0551 15.0428ZM12.6292 16.7095L7.68182 15.0428L7.16033 16.6239L12.1077 18.2905L12.6292 16.7095ZM8.24564 15.8334V13.3333H6.59651V15.8334H8.24564ZM16.4913 5.83334V10.8333H18.1404V5.83334H16.4913Z" fill="#1D1A19"/>
</g>
<defs>
<clipPath id="clip0_131_1150">
<rect width="24.7369" height="25" fill="white"/>
</clipPath>
</defs>
</svg>
