<svg width="23" height="23" viewBox="0 0 23 23" fill="none" xmlns="http://www.w3.org/2000/svg">
<g clip-path="url(#clip0_131_1019)">
<path d="M10.925 8.12187C9.6313 5.67812 8.26567 3.37812 6.82817 1.07812C3.3063 2.5875 0.718799 5.89375 0.143799 9.84687C3.5938 9.91875 7.18755 9.34375 10.925 8.12187Z" fill="#67554B"/>
<path d="M12.2907 7.61875C14.8782 6.6125 17.3938 5.31875 19.9813 3.7375C17.8251 1.4375 14.8782 0 11.5001 0C10.3501 0 9.2001 0.14375 8.19385 0.503125C9.63135 2.80312 10.997 5.175 12.2907 7.61875Z" fill="#67554B"/>
<path d="M14.3031 11.8594C16.3875 11.2844 18.6156 10.925 20.8437 10.925C21.5625 10.925 22.2094 10.925 22.9281 10.9969C22.8562 8.69686 22.0656 6.54061 20.8437 4.81561C18.1844 6.54061 15.525 7.90624 12.9375 8.91249C13.3687 9.91874 13.8719 10.8531 14.3031 11.8594Z" fill="#67554B"/>
<path d="M12.9375 12.2906C12.5062 11.2844 12.0031 10.35 11.5 9.34375C7.90625 10.5656 4.38437 11.2125 1.00625 11.2125C0.646875 11.2125 0.359375 11.2125 0 11.2125C0 11.2844 0 11.3563 0 11.5C0 14.375 1.07812 16.9625 2.80312 18.975C5.67812 15.8844 9.12812 13.6563 12.9375 12.2906Z" fill="#67554B"/>
<path d="M20.9156 12.4344C18.9031 12.4344 16.8906 12.7219 14.95 13.225C16.1 15.7406 17.0343 18.4 17.9687 21.0594C20.7718 19.1906 22.6406 16.1 22.9999 12.5781C22.2812 12.4344 21.5625 12.4344 20.9156 12.4344Z" fill="#67554B"/>
<path d="M13.5843 13.6562C9.9187 14.8781 6.61245 17.0344 3.80933 20.0531C5.82183 21.85 8.55308 23 11.5 23C13.3687 23 15.0937 22.5687 16.675 21.7781C15.7406 18.975 14.7343 16.3156 13.5843 13.6562Z" fill="#67554B"/>
</g>
<defs>
<clipPath id="clip0_131_1019">
<rect width="23" height="23" fill="white"/>
</clipPath>
</defs>
</svg>
