<svg width="27" height="23" viewBox="0 0 27 23" fill="none" xmlns="http://www.w3.org/2000/svg">
<g clip-path="url(#clip0_131_1027)">
<path fill-rule="evenodd" clip-rule="evenodd" d="M7.14328 0C5.13699 0 3.32274 0.50181 2.00591 1.7255C0.676587 2.96081 0 4.79525 0 7.14865V15.8514C0 18.2048 0.676587 20.0392 2.00591 21.2745C3.32274 22.4982 5.13699 23 7.14328 23H19.5664C21.5727 23 23.387 22.4982 24.7037 21.2745C26.0331 20.0392 26.7097 18.2048 26.7097 15.8514V7.14865C26.7097 4.79525 26.0331 2.96081 24.7037 1.7255C23.387 0.50181 21.5727 0 19.5664 0H7.14328ZM22.3349 6.97745C22.742 6.66259 22.817 6.077 22.5023 5.66951C22.1878 5.26201 21.6027 5.18694 21.1954 5.50181L14.3042 10.8306C13.745 11.2632 12.9645 11.2632 12.4052 10.8306L5.51412 5.50181C5.10693 5.18694 4.52179 5.26201 4.20715 5.66951C3.89251 6.077 3.96753 6.66259 4.37472 6.97745L11.2659 12.3064C12.4963 13.2577 14.2133 13.2577 15.4437 12.3064L22.3349 6.97745Z" fill="#67554B"/>
</g>
<defs>
<clipPath id="clip0_131_1027">
<rect width="26.7097" height="23" fill="white"/>
</clipPath>
</defs>
</svg>
