<svg width="21" height="25" viewBox="0 0 21 25" fill="none" xmlns="http://www.w3.org/2000/svg">
<g clip-path="url(#clip0_131_1144)">
<path d="M5.66907 1.32434C8.46411 1.27084 12.8875 0.808475 15.7224 1.15525C18.766 1.52755 18.8702 3.59582 18.9785 4.41538C19.1739 5.89462 18.479 7.64724 17.0658 8.41113C15.888 9.04783 7.10825 9.26329 5.90812 8.93891C1.42739 7.72789 1.14786 1.98692 4.8721 1.39975" stroke="#1D1A19" stroke-width="2" stroke-linecap="round" stroke-linejoin="round"/>
<path d="M11.2765 11.1938C11.75 10.2903 12.6554 9.54721 13.7582 9.39047C18.7179 8.6853 20.3898 12.9248 17.8058 15.3126C14.8254 18.0668 10.8911 15.5086 10.8911 12.1066" stroke="#1D1A19" stroke-width="2" stroke-linecap="round" stroke-linejoin="round"/>
<path d="M5.03344 9.31238C2.27912 10.0378 1.17983 14.485 3.731 16.0855C5.60461 17.2609 8.06698 16.8596 10.1745 16.8596" stroke="#1D1A19" stroke-width="2" stroke-linecap="round" stroke-linejoin="round"/>
<path d="M5.61669 16.7126C3.51152 17.2909 2.34282 18.5763 2.08517 20.4641C1.57052 24.2346 7.71367 25.8679 9.85458 22.4369C10.9023 20.7577 10.4712 18.3684 10.5609 16.5185C10.8362 10.843 10.3843 6.14423 10.5609 1.02734" stroke="#1D1A19" stroke-width="2" stroke-linecap="round" stroke-linejoin="round"/>
</g>
<defs>
<clipPath id="clip0_131_1144">
<rect width="20.8904" height="25" fill="white"/>
</clipPath>
</defs>
</svg>
