<svg width="25" height="25" viewBox="0 0 25 25" fill="none" xmlns="http://www.w3.org/2000/svg">
<g clip-path="url(#clip0_131_1152)">
<path d="M0.833337 0.833334V0C0.600294 0 0.377897 0.0975831 0.220101 0.269075C0.0623051 0.440569 -0.016472 0.670301 0.00288121 0.902539L0.833337 0.833334ZM24.1667 0.833334L24.9972 0.902539C25.0165 0.670301 24.9377 0.440569 24.7799 0.269075C24.6222 0.0975831 24.3997 0 24.1667 0V0.833334ZM22.5 20.8334L22.7635 21.6239C23.0799 21.5185 23.3029 21.2347 23.3305 20.9025L22.5 20.8334ZM12.5 24.1667L12.2365 24.9572C12.4076 25.0144 12.5925 25.0144 12.7635 24.9572L12.5 24.1667ZM2.50001 20.8334L1.66955 20.9025C1.69724 21.2347 1.92024 21.5185 2.23649 21.6239L2.50001 20.8334ZM7.50001 5.83334V5.00001H6.66668V5.83334H7.50001ZM7.50001 10.8333H6.66668V11.6667H7.50001V10.8333ZM17.5 10.8333H18.3334V10H17.5V10.8333ZM17.5 15.8334L17.7635 16.6239L18.3334 16.434V15.8334H17.5ZM12.5 17.5L12.2365 18.2905L12.5 18.3784L12.7635 18.2905L12.5 17.5ZM7.50001 15.8334H6.66668V16.434L7.2365 16.6239L7.50001 15.8334ZM0.833337 1.66667H24.1667V0H0.833337V1.66667ZM23.3362 0.764129L21.6695 20.7642L23.3305 20.9025L24.9972 0.902539L23.3362 0.764129ZM22.2365 20.0429L12.2365 23.3762L12.7635 24.9572L22.7635 21.6239L22.2365 20.0429ZM12.7635 23.3762L2.76352 20.0429L2.23649 21.6239L12.2365 24.9572L12.7635 23.3762ZM3.33046 20.7642L1.66379 0.764129L0.00288121 0.902539L1.66955 20.9025L3.33046 20.7642ZM18.3334 5.00001H7.50001V6.66667H18.3334V5.00001ZM6.66668 5.83334V10.8333H8.33335V5.83334H6.66668ZM7.50001 11.6667H17.5V10H7.50001V11.6667ZM16.6667 10.8333V15.8334H18.3334V10.8333H16.6667ZM17.2365 15.0428L12.2365 16.7095L12.7635 18.2905L17.7635 16.6239L17.2365 15.0428ZM12.7635 16.7095L7.76353 15.0428L7.2365 16.6239L12.2365 18.2905L12.7635 16.7095ZM8.33335 15.8334V13.3333H6.66668V15.8334H8.33335Z" fill="#1D1A19"/>
</g>
<defs>
<clipPath id="clip0_131_1152">
<rect width="25" height="25" fill="white"/>
</clipPath>
</defs>
</svg>
