<svg width="23" height="23" viewBox="0 0 23 23" fill="none" xmlns="http://www.w3.org/2000/svg">
<g clip-path="url(#clip0_131_1309)">
<path d="M16.5312 0H6.46875C2.875 0 0 2.875 0 6.46875V10.7812V16.5312C0 20.125 2.875 23 6.46875 23H16.5312C20.125 23 23 20.125 23 16.5312V10.7812V6.46875C23 2.875 20.125 0 16.5312 0ZM11.5 7.1875C13.8719 7.1875 15.8125 9.12813 15.8125 11.5C15.8125 13.8719 13.8719 15.8125 11.5 15.8125C9.12812 15.8125 7.1875 13.8719 7.1875 11.5C7.1875 9.12813 9.12812 7.1875 11.5 7.1875ZM15.8125 5.03125C15.8125 4.24062 16.4594 3.59375 17.25 3.59375C18.0406 3.59375 18.6875 4.24062 18.6875 5.03125C18.6875 5.82188 18.0406 6.46875 17.25 6.46875C16.4594 6.46875 15.8125 5.82188 15.8125 5.03125Z" fill="#1D1A19"/>
</g>
<defs>
<clipPath id="clip0_131_1309">
<rect width="23" height="23" fill="white"/>
</clipPath>
</defs>
</svg>
