<svg width="25" height="25" viewBox="0 0 25 25" fill="none" xmlns="http://www.w3.org/2000/svg">
<g clip-path="url(#clip0_131_1154)">
<path d="M20.8333 13.3334V13.0556C20.8333 11.8283 19.8383 10.8334 18.6111 10.8334H16.6666C15.2859 10.8334 14.1666 11.9527 14.1666 13.3334C14.1666 14.7141 15.2859 15.8334 16.6666 15.8334H18.3333C19.7139 15.8334 20.8333 16.9527 20.8333 18.3334C20.8333 19.714 19.7139 20.8334 18.3333 20.8334H16.6666C15.2859 20.8334 14.1666 19.714 14.1666 18.3334M10.8333 10V18.3334C10.8333 19.714 9.71397 20.8334 8.33325 20.8334C6.95254 20.8334 5.83325 19.714 5.83325 18.3334M0.833252 0.833374H24.1666V24.1667H0.833252V0.833374Z" stroke="black" stroke-width="1.5"/>
</g>
<defs>
<clipPath id="clip0_131_1154">
<rect width="25" height="25" fill="white"/>
</clipPath>
</defs>
</svg>
