<svg width="24" height="23" viewBox="0 0 24 23" fill="none" xmlns="http://www.w3.org/2000/svg">
<rect x="0.709717" width="23" height="23" rx="6" fill="#1D1A19"/>
<g clip-path="url(#clip0_131_1323)">
<path fill-rule="evenodd" clip-rule="evenodd" d="M19.1096 18.3996H16.3496V13.5703C16.3496 12.2455 15.7651 11.5063 14.717 11.5063C13.5765 11.5063 12.8996 12.2765 12.8996 13.5703V18.3996H10.1396V9.42961H12.8996V10.4383C12.8996 10.4383 13.7655 8.91885 15.7168 8.91885C17.6688 8.91885 19.1096 10.11 19.1096 12.5747V18.3996ZM6.99455 7.99503C6.06374 7.99503 5.30957 7.23469 5.30957 6.29698C5.30957 5.35996 6.06374 4.59961 6.99455 4.59961C7.92467 4.59961 8.67884 5.35996 8.67884 6.29698C8.67953 7.23469 7.92467 7.99503 6.99455 7.99503ZM5.30957 18.3996H8.75957V9.42961H5.30957V18.3996Z" fill="white"/>
</g>
<defs>
<clipPath id="clip0_131_1323">
<rect width="13.8" height="13.8" fill="white" transform="translate(5.30957 4.59961)"/>
</clipPath>
</defs>
</svg>
