<svg width="24" height="23" viewBox="0 0 24 23" fill="none" xmlns="http://www.w3.org/2000/svg">
<rect x="0.709717" width="23" height="23" rx="6" fill="#67554B"/>
<g clip-path="url(#clip0_131_1031)">
<path fill-rule="evenodd" clip-rule="evenodd" d="M19.1096 18.3999H16.3496V13.5706C16.3496 12.2458 15.7651 11.5067 14.717 11.5067C13.5765 11.5067 12.8996 12.2768 12.8996 13.5706V18.3999H10.1396V9.42991H12.8996V10.4386C12.8996 10.4386 13.7655 8.91915 15.7168 8.91915C17.6688 8.91915 19.1096 10.1103 19.1096 12.575V18.3999ZM6.99455 7.99533C6.06374 7.99533 5.30957 7.235 5.30957 6.29729C5.30957 5.36027 6.06374 4.59991 6.99455 4.59991C7.92467 4.59991 8.67884 5.36027 8.67884 6.29729C8.67953 7.235 7.92467 7.99533 6.99455 7.99533ZM5.30957 18.3999H8.75957V9.42991H5.30957V18.3999Z" fill="white"/>
</g>
<defs>
<clipPath id="clip0_131_1031">
<rect width="13.8" height="13.8" fill="white" transform="translate(5.30957 4.59991)"/>
</clipPath>
</defs>
</svg>
