<svg width="45" height="35" viewBox="0 0 45 35" fill="none" xmlns="http://www.w3.org/2000/svg">
<path d="M22.2236 30.1979C22.375 30.4718 22.8581 30.8063 23.289 30.8063C25.3299 30.8063 26.9216 29.3023 28.1398 27.2856L28.8603 25.9867C28.8603 25.9867 28.7556 13.0621 28.7191 8.56972C28.7159 8.16858 28.8723 7.78275 29.1535 7.49785C29.4347 7.21306 29.8175 7.05285 30.2168 7.05285C30.6155 7.05285 30.9978 7.21264 31.2789 7.49671C31.5599 7.78087 31.7166 8.16587 31.7141 8.56639C31.6899 12.462 31.6274 22.5309 31.6274 22.5309C32.5594 20.8218 33.7276 18.7061 34.6596 16.997C34.6596 16.997 36.8602 13.1775 38.4959 10.3386C39.571 8.47264 41.5545 7.32358 43.7006 7.32358H44.0428L31.8566 27.2514C29.3183 31.2842 26.6234 33.8316 22.6803 33.9808C19.8326 34.0888 18.4327 32.2991 18.25 29.8798C18.2219 29.5075 18.2308 28.5193 18.2308 28.5193C18.2308 28.5193 17.2085 7.90139 17.2137 5.62744C17.2137 5.62744 10.1038 17.5233 6.71835 23.1876C5.6312 25.0064 3.67422 26.1192 1.56255 26.1192H0.952148C0.952148 26.1192 11.2487 8.86337 14.7851 2.9365C15.5147 1.71401 16.8293 0.965881 18.2482 0.965881C18.2483 0.965881 18.2483 0.965881 18.2484 0.965881C19.5217 0.965881 20.5727 1.96661 20.6407 3.24411C21.0001 9.99295 22.0343 29.4126 22.0343 29.4126C22.0343 29.4126 22.0395 29.8649 22.2236 30.1979Z" fill="#67554B"/>
</svg>
