<svg width="24" height="23" viewBox="0 0 24 23" fill="none" xmlns="http://www.w3.org/2000/svg">
<g clip-path="url(#clip0_131_1038)">
<path fill-rule="evenodd" clip-rule="evenodd" d="M12.0671 0C5.76857 0 0.709717 5.09984 0.709717 11.4523C0.709717 16.1673 3.47777 20.1128 7.48667 21.9415C7.48667 19.7939 7.47171 20.0707 9.10816 13.0874C8.20886 11.2726 8.90807 8.27629 10.9217 8.27629C13.7162 8.27629 11.8176 12.4195 11.4944 14.0499C11.2081 15.3011 12.1626 16.264 13.308 16.264C15.5033 16.264 16.9339 13.4725 16.9339 10.2012C16.9339 7.69872 15.217 5.87017 12.258 5.87017C6.99678 5.87017 5.66277 11.7295 7.48667 13.5687C7.94552 14.2633 7.48667 14.2958 7.48667 15.2049C7.16812 16.1663 4.62317 14.7689 4.62317 11.1636C4.62317 7.89118 7.29577 4.04241 12.7353 4.04241C17.0294 4.04241 19.8929 7.21769 19.8929 10.5864C19.8929 15.1089 17.4112 18.3815 13.7852 18.3815C12.5444 18.3815 11.399 17.7072 11.0172 16.9372C10.3237 19.6345 10.1834 21.002 9.10816 22.5188C10.1581 22.8075 11.2081 23 12.3535 23C18.652 23 23.7097 17.9001 23.7097 11.5489C23.4245 5.10018 18.3657 0 12.0671 0Z" fill="#67554B"/>
</g>
<defs>
<clipPath id="clip0_131_1038">
<rect width="23" height="23" fill="white" transform="translate(0.709717)"/>
</clipPath>
</defs>
</svg>
