<svg width="25" height="25" viewBox="0 0 25 25" fill="none" xmlns="http://www.w3.org/2000/svg">
<g clip-path="url(#clip0_131_1179)">
<path d="M2.01178 12.7632C2.01178 11.2249 2.32615 9.79181 2.92132 8.49743L7.921 22.2021C4.42492 20.5239 2.0129 16.9227 2.0129 12.7621L2.01178 12.7632ZM19.5962 12.2385C19.5962 13.148 19.2461 14.1616 18.7918 15.6294L17.7425 19.1255L13.932 7.83289C14.5619 7.79821 15.1559 7.72773 15.1559 7.72773C15.7153 7.65725 15.6459 6.85399 15.0854 6.88867C15.0854 6.88867 13.3726 6.99383 12.2886 6.99383C11.2392 6.99383 9.5264 6.88867 9.5264 6.88867C8.96702 6.85399 8.89654 7.69305 9.45592 7.72773C9.45592 7.72773 9.98061 7.79821 10.54 7.83289L12.1834 12.3079L9.87545 19.1949L6.065 7.83289C6.69485 7.79821 7.25422 7.72773 7.25422 7.72773C7.84828 7.65725 7.77892 6.85399 7.18374 6.88867C7.18374 6.88867 5.50563 6.99383 4.38688 6.99383H3.72234C5.61079 4.16229 8.82718 2.27385 12.4978 2.27385C15.2253 2.27385 17.7067 3.32323 19.5951 5.03603C19.5246 5.00135 19.4899 5.00135 19.4553 5.00135C18.4059 5.00135 17.672 5.91089 17.672 6.88979C17.672 7.72885 18.1967 8.46274 18.7214 9.3376C19.1062 10.0368 19.5951 10.9464 19.5951 12.2396L19.5962 12.2385ZM9.52752 22.8319L12.6745 13.6716L15.9256 22.5164C15.9256 22.5869 15.9603 22.6216 15.9961 22.6563C14.912 23.0411 13.7239 23.2503 12.5 23.2503C11.4864 23.2503 10.4717 23.1105 9.52863 22.8308L9.52752 22.8319ZM21.6939 7.72885C22.5329 9.23244 22.9871 10.9452 22.9871 12.7632C22.9871 16.6441 20.8895 20.0004 17.7783 21.853L20.9947 12.5529C21.5887 11.084 21.7644 9.86118 21.7644 8.81179C21.7644 8.42695 21.7644 8.07901 21.6939 7.72885ZM12.5 0.526367C19.2472 0.526367 24.7369 6.01493 24.7369 12.7632C24.7369 19.5115 19.2483 25 12.5 25C5.75175 25 0.263184 19.5115 0.263184 12.7632C0.263184 6.01493 5.75175 0.526367 12.5 0.526367ZM12.5 24.4395C18.9328 24.4395 24.1775 19.1949 24.1775 12.7621C24.1775 6.3293 18.9328 1.08462 12.5 1.08462C6.06724 1.08462 0.822556 6.3293 0.822556 12.7621C0.822556 19.1949 6.06724 24.4395 12.5 24.4395Z" fill="#1D1A19"/>
</g>
<defs>
<clipPath id="clip0_131_1179">
<rect width="25" height="25" fill="white"/>
</clipPath>
</defs>
</svg>
